<svg class="mr-8" fill="none" height="20" viewBox="0 0 20 20" width="20" xmlns="http://www.w3.org/2000/svg" data-v-6ca6b4de=""><mask id="mask0_1412_794" height="20" maskUnits="userSpaceOnUse" style="mask-type:alpha;" width="20" x="0" y="0" data-v-6ca6b4de=""><rect fill="#D9D9D9" height="20" width="20" data-v-6ca6b4de=""></rect></mask><g mask="url(#mask0_1412_794)" data-v-6ca6b4de=""><path d="M10 18V16C8.05099 16 6.39706 15.3211 5.03823 13.9632C3.67941 12.6053 3 10.9525 3 9.00483C3 7.05717 3.67978 5.40278 5.03933 4.04167C6.39888 2.68056 8.05368 2 10.0037 2C10.9788 2 11.8886 2.18403 12.7331 2.55208C13.5777 2.92014 14.316 3.42014 14.9479 4.05208C15.5799 4.68403 16.0799 5.42268 16.4479 6.26804C16.816 7.1134 17 8.02406 17 9C17 9.95833 16.7951 10.8889 16.3854 11.7917C15.9757 12.6944 15.441 13.5347 14.7812 14.3125C14.1215 15.0903 13.375 15.7951 12.5417 16.4271C11.7083 17.059 10.8611 17.5833 10 18ZM10 13C10.2303 13 10.4268 12.9187 10.5894 12.7561C10.752 12.5935 10.8333 12.397 10.8333 12.1667C10.8333 11.9363 10.752 11.7398 10.5894 11.5772C10.4268 11.4146 10.2303 11.3333 10 11.3333C9.76965 11.3333 9.57317 11.4146 9.41056 11.5772C9.24797 11.7398 9.16667 11.9363 9.16667 12.1667C9.16667 12.397 9.24797 12.5935 9.41056 12.7561C9.57317 12.9187 9.76965 13 10 13ZM9.39583 10.4583H10.6042C10.6042 10.0972 10.6319 9.82292 10.6875 9.63542C10.7431 9.44792 10.9028 9.22222 11.1667 8.95833C11.4167 8.72222 11.6667 8.47222 11.9167 8.20833C12.1667 7.94444 12.2917 7.56944 12.2917 7.08333C12.2917 6.41667 12.0694 5.90278 11.625 5.54167C11.1806 5.18056 10.6389 5 10 5C9.41826 5 8.92908 5.16667 8.53246 5.5C8.13582 5.83333 7.86111 6.22222 7.70833 6.66667L8.7985 7.125C8.86339 6.88889 8.98952 6.66667 9.1769 6.45833C9.36427 6.25 9.63864 6.14583 10 6.14583C10.375 6.14583 10.6493 6.25 10.8229 6.45833C10.9965 6.66667 11.0833 6.88889 11.0833 7.125C11.0833 7.41667 10.9826 7.66319 10.7812 7.86458C10.5799 8.06597 10.3611 8.27778 10.125 8.5C9.76389 8.83333 9.55208 9.12153 9.48958 9.36458C9.42708 9.60764 9.39583 9.97222 9.39583 10.4583Z" fill="#1C1B1F" data-v-6ca6b4de=""></path></g></svg>