<svg class="ml-2 mt-2 transform all-transition" fill="none" height="20" viewBox="0 0 20 20" width="20" xmlns="http://www.w3.org/2000/svg" data-v-6ca6b4de=""><mask id="mask0_1412_785" height="20" maskUnits="userSpaceOnUse" style="mask-type:alpha;" width="20" x="0" y="0" data-v-6ca6b4de=""><rect fill="#D9D9D9" height="20" width="20" data-v-6ca6b4de=""></rect></mask><g mask="url(#mask0_1412_785)" data-v-6ca6b4de=""><path d="M9.99595 12.7501C9.89595 12.7501 9.8022 12.7327 9.7147 12.698C9.6272 12.6633 9.54873 12.6112 9.47928 12.5417L5.52799 8.59046C5.37052 8.43298 5.29525 8.25355 5.3022 8.05216C5.30914 7.85078 5.389 7.67369 5.54178 7.52091C5.69456 7.36814 5.87164 7.29175 6.07303 7.29175C6.27442 7.29175 6.4515 7.36814 6.60428 7.52091L10.0001 10.9376L13.4168 7.52091C13.5696 7.36814 13.7466 7.29522 13.948 7.30216C14.1494 7.30911 14.3265 7.38897 14.4793 7.54175C14.6321 7.69453 14.7084 7.87161 14.7084 8.073C14.7084 8.27439 14.6297 8.45343 14.4722 8.61012L10.5209 12.5417C10.4459 12.6112 10.3647 12.6633 10.2772 12.698C10.1897 12.7327 10.0959 12.7501 9.99595 12.7501Z" fill="#1C1B1F" data-v-6ca6b4de=""></path></g></svg>